<svg xmlns="http://www.w3.org/2000/svg" viewBox="0 0 745.2 860.48"><defs><linearGradient id="a" x1="13.95" y1="510.41" x2="741.2" y2="347.85" gradientUnits="userSpaceOnUse"><stop offset="0" stop-color="#c132ce"/><stop offset="1" stop-color="#425afa"/></linearGradient><linearGradient id="b" x1="143.26" y1="502.2" x2="250.53" y2="859.03" gradientUnits="userSpaceOnUse"><stop offset="0" stop-color="#425afa"/><stop offset=".16" stop-color="#5a52f2"/><stop offset=".55" stop-color="#9241de"/><stop offset=".84" stop-color="#b436d3"/><stop offset="1" stop-color="#c132ce"/></linearGradient><linearGradient id="c" x1="438.57" y1="792.99" x2="676.22" y2="501.42" gradientUnits="userSpaceOnUse"><stop offset="0" stop-color="#c132ce"/><stop offset=".1" stop-color="#ab39d6"/><stop offset=".28" stop-color="#8545e3"/><stop offset=".47" stop-color="#684eed"/><stop offset=".65" stop-color="#5355f4"/><stop offset=".83" stop-color="#4659f9"/><stop offset="1" stop-color="#425afa"/></linearGradient></defs><g data-name="Layer 2"><g data-name="Layer 1"><path fill="#80d8ff" d="M745.2 645.36L372.6 430.24V0l372.6 215.12v430.24z"/><path fill="#7acfff" d="M0 645.36l372.6-215.12V0L0 215.12v430.24z"/><path fill="url(#a)" d="M372.6 645.36l372.6-215.12-372.6-215.12L0 430.24l372.6 215.12z"/><path opacity=".3" fill="#e4f0fe" d="M372.6 860.48L0 645.36V215.12l372.6 215.12v430.24z"/><path fill="url(#b)" d="M0 645.36l372.6 215.12V645.36L0 430.24v215.12z"/><path fill="#d0e6ff" opacity=".3" d="M372.6 860.48l372.6-215.12V215.12L372.6 430.24v430.24z"/><path fill="url(#c)" d="M745.2 645.36L372.6 860.48V645.36l372.6-215.12v215.12z"/><path fill="#fff" opacity=".3" d="M372.6 430.24l372.6-215.12L372.6 0 0 215.12l372.6 215.12z"/></g></g></svg>